<svg width="10" height="12" viewBox="0 0 10 12" fill="none" xmlns="http://www.w3.org/2000/svg">
<path d="M5.06137 11.0001C6.04778 10.1484 8.98528 7.39067 8.98528 4.74269C8.98528 3.61746 8.53829 2.53832 7.74264 1.74266C6.94699 0.946997 5.86786 0.5 4.74264 0.5C3.61742 0.5 2.53829 0.946997 1.74264 1.74266C0.946991 2.53832 0.5 3.61746 0.5 4.74269C0.5 7.39067 3.4375 10.1484 4.42391 11.0001C4.51581 11.0692 4.62767 11.1066 4.74264 11.1066C4.85761 11.1066 4.96948 11.0692 5.06137 11.0001Z" stroke="#F6F1E8" stroke-linecap="round" stroke-linejoin="round"/>
<path d="M4.74264 6.3337C5.62132 6.3337 6.33363 5.62138 6.33363 4.74269C6.33363 3.864 5.62132 3.15168 4.74264 3.15168C3.86396 3.15168 3.15165 3.864 3.15165 4.74269C3.15165 5.62138 3.86396 6.3337 4.74264 6.3337Z" stroke="#F6F1E8" stroke-linecap="round" stroke-linejoin="round"/>
</svg>
