<svg width="11" height="11" viewBox="0 0 11 11" fill="none" xmlns="http://www.w3.org/2000/svg">
<path d="M7.16667 10.5C6.99426 10.5 6.82422 10.4588 6.67 10.3797L4.33 9.17822C4.17578 9.09908 4.00574 9.05788 3.83333 9.05788C3.66093 9.05788 3.49089 9.09908 3.33667 9.17822L1.30389 10.2222C1.21909 10.2657 1.12485 10.2862 1.03014 10.2818C0.93544 10.2773 0.843421 10.2481 0.762844 10.1968C0.682267 10.1455 0.615813 10.0739 0.569805 9.98875C0.523798 9.90363 0.499768 9.80783 0.500002 9.71048V2.42935C0.500057 2.32343 0.528826 2.21962 0.583086 2.12954C0.637347 2.03947 0.714957 1.96668 0.807224 1.91933L3.33667 0.620334C3.49089 0.541198 3.66093 0.5 3.83333 0.5C4.00574 0.5 4.17578 0.541198 4.33 0.620334L6.67 1.82178C6.82422 1.90092 6.99426 1.94212 7.16667 1.94212M7.16667 1.94212C7.33907 1.94212 7.50911 1.90092 7.66333 1.82178L9.69611 0.777789C9.78087 0.734294 9.87506 0.713785 9.96972 0.718212C10.0644 0.722638 10.1564 0.751853 10.2369 0.803079C10.3175 0.854304 10.3839 0.925838 10.43 1.01088C10.476 1.09592 10.5001 1.19164 10.5 1.28895V8.57065C10.4999 8.67657 10.4712 8.78038 10.4169 8.87046C10.3627 8.96053 10.285 9.03332 10.1928 9.08067L7.66333 10.3797C7.50911 10.4588 7.33907 10.5 7.16667 10.5M7.16667 1.94212V10.5M3.83333 0.5V9.05728" stroke="#F6F1E8" stroke-linecap="round" stroke-linejoin="round"/>
</svg>
